<svg width="18" height="177" viewBox="0 0 18 177" fill="none" xmlns="http://www.w3.org/2000/svg">
<path d="M15.968 176.714C16.808 175.394 17.24 173.762 17.24 171.818C17.24 168.554 15.656 166.418 12.752 166.418C9.704 166.394 8.408 169.346 7.52 171.602C6.872 173.162 6.032 174.434 4.88 174.434C3.248 174.434 2.48 173.066 2.48 171.314C2.48 169.898 2.888 168.602 3.704 167.402L1.856 167.402C1.208 168.626 0.871998 170.018 0.871999 171.602C0.871999 172.898 1.232 174.026 1.952 174.986C2.648 175.922 3.656 176.402 4.952 176.402C7.616 176.45 8.624 173.45 9.608 171.194C10.28 169.586 11.384 168.338 12.944 168.338C14.744 168.338 15.632 169.874 15.632 172.082C15.632 173.714 15.104 175.25 14.072 176.714L15.968 176.714ZM15.368 152.113L9.44 152.113L9.44 144.553L7.856 144.553L7.856 152.113L2.744 152.113L2.744 143.929L1.136 143.929L1.136 154.057L17 154.057L17 143.329L15.368 143.329L15.368 152.113ZM15.368 129.106L9.44 129.106L9.44 121.546L7.856 121.546L7.856 129.106L2.744 129.106L2.744 120.922L1.136 120.922L1.136 131.05L17 131.05L17 120.322L15.368 120.322L15.368 129.106ZM5.696 78.8784L5.744 78.8064C7.04 78.8064 8.912 78.8064 11.384 78.8304L17 78.8304L17 76.9824L1.016 76.9824L1.016 77.3904L11.096 84.8064L1.016 92.2704L1.016 92.6784L17 92.6784L17 90.8304L5.936 90.8304L5.888 90.7824L13.568 85.0224L13.568 84.6384L5.696 78.8784ZM17.24 55.9241C17.24 53.5481 16.472 51.6041 14.912 50.0681C13.352 48.5081 11.408 47.7401 9.07999 47.7401C6.75199 47.7401 4.80799 48.5081 3.24799 50.0681C1.66399 51.6281 0.871993 53.5721 0.871993 55.9241C0.871994 58.2041 1.66399 60.1721 3.27199 61.7801C4.85599 63.3881 6.79999 64.1801 9.07999 64.1801C11.456 64.1801 13.4 63.4361 14.936 61.9721C16.472 60.4841 17.24 58.4681 17.24 55.9241ZM9.07999 62.1881C7.23199 62.1881 5.67199 61.6121 4.42399 60.4361C3.17599 59.2601 2.55199 57.7481 2.55199 55.9241C2.55199 54.1001 3.17599 52.6121 4.44799 51.4361C5.69599 50.2601 7.23199 49.6601 9.07999 49.6601C10.904 49.6601 12.44 50.2361 13.712 51.4121C14.96 52.5641 15.584 54.0761 15.584 55.9241C15.584 57.8201 14.984 59.3561 13.76 60.4841C12.536 61.6121 10.976 62.1881 9.07999 62.1881ZM1.15999 34.9712L17 34.9712L17 33.0272L2.71999 33.0272L2.71999 29.5952C2.71999 27.2912 4.03999 25.7552 6.24799 25.7552C8.26399 25.7552 9.91999 27.5792 10.04 30.9632L10.352 30.9632L17 25.3472L17 22.9472L11.096 28.1312C10.736 26.7872 10.112 25.7312 9.19999 24.9632C8.26399 24.1952 7.23199 23.8112 6.10399 23.8112C4.54399 23.8112 3.34399 24.3632 2.47999 25.4672C1.59199 26.5472 1.15999 27.8432 1.15999 29.3072L1.15999 34.9712ZM15.368 9.01256L9.43999 9.01256L9.43999 1.45256L7.85599 1.45256L7.85599 9.01256L2.74399 9.01256L2.74399 0.828555L1.13599 0.828555L1.13599 10.9566L17 10.9566L17 0.228555L15.368 0.228555L15.368 9.01256Z" fill="#CCA766"/>
</svg>
