<svg width="50" height="33" viewBox="0 0 50 33" fill="none" xmlns="http://www.w3.org/2000/svg">
<path d="M24.948 0C33.1606 0.747457 31.3572 10.1437 31.3572 10.1437C31.3572 10.1437 29.8639 16.5503 24.948 24.9855C20.0515 16.4435 18.665 10.1437 18.665 10.1437C18.665 10.1437 16.7354 0.640681 24.948 0Z" fill="#CCA766"/>
<path d="M32.1038 23.0698C27.3042 27.2341 26.6642 33 26.6642 33C26.6642 33 31.5714 30.1007 36.3701 30.004C40.7773 29.9152 45.0325 32.0328 47.8891 29.6837C49.8367 28.082 50.5944 25.6862 49.4889 22.8563C46.9445 16.343 36.4955 19.2594 32.1038 23.0698Z" fill="#CCA766"/>
<path d="M17.8962 23.0698C22.6958 27.2341 23.3357 33 23.3357 33C23.3357 33 18.4286 30.1007 13.6299 30.004C9.2227 29.9152 4.96752 32.0328 2.11097 29.6837C0.163316 28.082 -0.59439 25.6862 0.511116 22.8563C3.05553 16.343 13.5045 19.2594 17.8962 23.0698Z" fill="#CCA766"/>
</svg>
