<svg width="336" height="90" viewBox="0 0 336 90" fill="none" xmlns="http://www.w3.org/2000/svg">
<path d="M20.9379 23.9504H18.7834L5.80075 56.5477C3.81192 61.4179 2.43079 63.1335 0 63.7423V63.9637H9.88889V63.7423C6.13222 63.0782 5.08256 61.0858 7.01614 56.0496L9.33644 50.1278H25.8548L28.1751 56.437C29.7772 61.3625 29.1695 63.0228 26.4625 63.7423V63.9637H38.2849V63.7423C37.2353 63.4656 36.3514 62.8014 35.5779 61.6946C34.8597 60.5877 33.8653 58.3186 32.5947 54.9427L20.9379 23.9504ZM17.8995 28.5993L25.5233 49.2977H9.66791L17.8995 28.5993Z" fill="white"/>
<path d="M60.8384 44.4828C65.5342 42.7118 68.2965 39.1145 68.2965 34.9084C68.2965 31.7538 67.1363 29.0974 64.7608 27.0497C62.3852 25.002 58.8495 23.9504 54.0984 23.9504H42.2207V24.1718C44.0438 24.6699 44.8725 26.4409 44.8725 31.9752V55.9389C44.8725 61.4732 44.0438 63.2442 42.2207 63.7423V63.9637H52.6621V63.7423C51.5572 63.4656 50.7837 62.7461 50.2865 61.5839C49.7893 60.4217 49.5684 58.2633 49.5684 55.1641V45.7004H53.6565C54.8166 45.7004 55.8663 45.645 56.7502 45.479L67.0811 63.9637H73.3238V63.6869C72.3846 63.4656 71.5007 62.1927 69.2356 58.4847L60.8384 44.4828ZM49.5684 44.9256V24.6699H53.104C59.8992 24.6699 63.2692 28.1012 63.2692 35.0191C63.2692 40.9408 60.0649 44.9256 53.6012 44.9256H49.5684Z" fill="white"/>
<path d="M71.9427 23.9504L71.4454 34.8531L71.6664 34.9638C73.4343 27.4371 76.307 24.6699 82.2183 24.6699H85.754V55.9389C85.754 61.5285 84.8701 63.2442 82.826 63.7423V63.9637H93.3778V63.7423C91.3337 63.2442 90.4498 61.5285 90.4498 55.9389V24.6699H94.0407C99.952 24.6699 102.825 27.4371 104.593 34.9638L104.814 34.8531L104.316 23.9504H71.9427Z" fill="white"/>
<path d="M144.209 24.1718C147.966 24.8359 148.905 26.8283 147.137 31.8645L136.53 59.3148L126.089 31.4771C124.376 26.5516 125.094 24.8913 127.801 24.1718V23.9504H115.923V24.1718C116.973 24.4485 117.857 25.168 118.575 26.2749C119.293 27.3264 120.343 29.5955 121.669 32.9714L133.491 63.9637H135.646L148.297 31.3664C150.12 26.5516 151.612 24.8359 154.043 24.1718V23.9504H144.209V24.1718Z" fill="white"/>
<path d="M164.418 31.9752C164.418 26.3855 165.136 24.6699 167.07 24.1718V23.9504H157.07V24.1718C158.893 24.6699 159.722 26.4409 159.722 31.9752V55.9389C159.722 61.4732 158.893 63.2442 157.07 63.7423V63.9637H167.125V63.7423C165.191 63.2442 164.418 61.5285 164.418 55.9389V31.9752Z" fill="white"/>
<path d="M199.786 52.0095C197.355 59.9789 193.598 63.2442 188.074 63.2442H180.174V31.9752C180.174 26.3855 180.947 24.6699 182.881 24.1718V23.9504H172.826V24.1718C174.649 24.6699 175.478 26.4409 175.478 31.9752V55.9389C175.478 61.4732 174.649 63.2442 172.826 63.7423V63.9637H198.57L199.951 52.1202L199.786 52.0095Z" fill="white"/>
<path d="M228.813 52.0095C226.382 59.9789 222.626 63.2442 217.101 63.2442H209.201V31.9752C209.201 26.3855 209.975 24.6699 211.908 24.1718V23.9504H201.854V24.1718C203.677 24.6699 204.505 26.4409 204.505 31.9752V55.9389C204.505 61.4732 203.677 63.2442 201.854 63.7423V63.9637H227.598L228.979 52.1202L228.813 52.0095Z" fill="white"/>
<path d="M250.383 23.9504H248.228L235.245 56.5477C233.257 61.4179 231.875 63.1335 229.445 63.7423V63.9637H239.333V63.7423C235.577 63.0782 234.527 61.0858 236.461 56.0496L238.781 50.1278H255.299L257.62 56.437C259.222 61.3625 258.614 63.0228 255.907 63.7423V63.9637H267.73V63.7423C266.68 63.4656 265.796 62.8014 265.023 61.6946C264.304 60.5877 263.31 58.3186 262.039 54.9427L250.383 23.9504ZM247.344 28.5993L254.968 49.2977H239.113L247.344 28.5993Z" fill="white"/>
<path d="M293.211 45.3683C296.305 45.811 297.52 47.582 297.52 53.5038C297.52 60.8644 294.537 63.5209 286.968 63.5209C282.383 63.5209 278.681 61.8053 275.864 58.3186C273.046 54.832 271.61 50.0171 271.61 43.874C271.61 37.7309 273.046 32.9714 275.919 29.4848C278.792 25.9981 282.549 24.2272 287.245 24.2272C291.056 24.2272 293.874 25.1127 295.752 26.8836C297.686 28.6546 299.177 31.5878 300.282 35.6832L300.448 35.6279L300.117 25.9981C297.907 24.5039 292.824 23.397 287.245 23.397C281.223 23.397 276.251 25.2787 272.384 29.0974C268.516 32.8607 266.583 37.7863 266.583 43.874C266.583 49.9618 268.461 54.8874 272.273 58.6507C276.085 62.414 280.947 64.2957 286.968 64.2957C292.493 64.2957 296.581 63.2442 299.288 61.1411L302.161 64.019L302.271 63.9083C301.995 62.5801 301.774 61.3072 301.664 60.145C301.608 58.9827 301.553 56.769 301.553 53.5038C301.553 47.7481 302.437 45.8664 304.205 45.3683V45.2023H293.211V45.3683Z" fill="white"/>
<path d="M335.548 52.6736C334.388 56.603 332.841 59.3148 330.852 60.9198C328.864 62.4694 326.157 63.2442 322.731 63.2442H315.218V43.3206H321.682C324.389 43.3206 326.322 43.7633 327.372 44.7042C328.422 45.645 329.195 47.0839 329.637 49.0763H329.858V37.7309H329.637C329.195 39.5019 328.422 40.7748 327.372 41.5496C326.322 42.2691 324.444 42.6565 321.682 42.6565H315.218V24.6699H322.566C325.825 24.6699 328.256 25.4447 329.858 26.939C331.46 28.4332 332.676 31.1451 333.559 34.9638L333.78 34.8531L333.283 23.9504H307.87V24.1718C309.693 24.6699 310.522 26.4409 310.522 31.9752V55.9389C310.522 61.4732 309.693 63.2442 307.87 63.7423V63.9637H334.554L335.769 52.7843L335.548 52.6736Z" fill="white"/>
<path d="M161.602 0C166.374 0.438145 165.327 5.94605 165.327 5.94605C165.327 5.94605 164.459 9.70145 161.602 14.6461C158.757 9.63886 157.952 5.94605 157.952 5.94605C157.952 5.94605 156.83 0.375555 161.602 0Z" fill="white"/>
<path d="M165.76 13.5231C162.972 15.9641 162.6 19.344 162.6 19.344C162.6 19.344 165.451 17.6445 168.239 17.5878C170.8 17.5357 173.273 18.777 174.933 17.4C176.064 16.4612 176.505 15.0568 175.862 13.3979C174.384 9.57994 168.312 11.2895 165.76 13.5231Z" fill="white"/>
<path d="M157.505 13.5231C160.294 15.9641 160.666 19.344 160.666 19.344C160.666 19.344 157.814 17.6445 155.026 17.5878C152.465 17.5357 149.992 18.777 148.333 17.4C147.201 16.4612 146.761 15.0568 147.403 13.3979C148.881 9.57994 154.953 11.2895 157.505 13.5231Z" fill="white"/>
<path d="M31.502 88.5644V84.0184H37.2628V82.8037H31.502V78.8834H37.7383V77.6503H30.0207V89.8159H38.1954V88.5644H31.502Z" fill="white"/>
<path d="M63.7731 77.6871H62.31L58.6707 86.7975H58.5792L54.9033 77.6871H53.3854L58.4695 89.908H58.7621L63.7731 77.6871Z" fill="white"/>
<path d="M81.3463 88.5644V84.0184H87.1071V82.8037H81.3463V78.8834H87.5826V77.6503H79.865V89.8159H88.0398V88.5644H81.3463Z" fill="white"/>
<path d="M105.973 80.6135H106.028L114.44 89.908H114.77V77.6503H113.325V86.7607H113.252L104.857 77.5031H104.528V89.8159H105.973V80.6135Z" fill="white"/>
<path d="M140.148 77.6319H130.949V78.8834H134.826V89.8159H136.307V78.8834H140.148V77.6319Z" fill="white"/>
<path d="M183.81 83.7055C183.81 85.1595 183.444 86.3374 182.713 87.2209C182 88.1043 180.921 88.546 179.512 88.5644H176.641V78.8834H179.348C180.829 78.8834 181.926 79.3251 182.676 80.227C183.426 81.1288 183.81 82.2883 183.81 83.7055ZM179.512 89.8159C181.286 89.8159 182.694 89.2454 183.719 88.1227C184.743 87 185.255 85.5092 185.255 83.6871C185.255 81.865 184.724 80.411 183.645 79.3067C182.585 78.2025 181.14 77.6503 179.311 77.6503H175.178V89.8159H179.512Z" fill="white"/>
<path d="M203.609 88.5644V84.0184H209.369V82.8037H203.609V78.8834H209.845V77.6503H202.127V89.8159H210.302V88.5644H203.609Z" fill="white"/>
<path d="M225.949 89.0245C226.955 89.6687 228.199 90 229.68 90C232.167 90 233.795 88.7853 233.795 86.5583C233.813 84.2209 231.564 83.227 229.845 82.546C228.656 82.0491 227.687 81.4049 227.687 80.5215C227.687 79.2699 228.729 78.681 230.064 78.681C231.143 78.681 232.131 78.9939 233.045 79.6196V78.2025C232.112 77.7055 231.052 77.4479 229.845 77.4479C228.857 77.4479 227.997 77.7239 227.266 78.2761C226.553 78.8098 226.187 79.5828 226.187 80.5767C226.15 82.6196 228.436 83.3926 230.155 84.1472C231.381 84.6626 232.332 85.5092 232.332 86.7055C232.332 88.0859 231.161 88.7669 229.479 88.7669C228.235 88.7669 227.065 88.362 225.949 87.5706V89.0245Z" fill="white"/>
<path d="M251.974 77.6503H250.511V89.8159H251.974V77.6503Z" fill="white"/>
<path d="M269.033 83.8159C269.033 85.6012 269.563 87.0736 270.624 88.2331C271.703 89.3926 273.184 89.9816 275.104 89.9816C276.768 89.9816 278.122 89.7423 279.146 89.2454V83.7607H277.774V88.2699C277.024 88.5828 276.201 88.7485 275.342 88.7485C273.806 88.7485 272.617 88.2883 271.794 87.3865C270.971 86.4663 270.55 85.2699 270.55 83.8159C270.55 82.2515 271.026 81.0184 271.959 80.0982C272.891 79.1595 274.062 78.6994 275.47 78.6994C276.622 78.6994 277.683 78.9571 278.652 79.4724V78.0736C277.847 77.6319 276.768 77.411 275.397 77.411C273.568 77.411 272.05 78.0184 270.843 79.2515C269.636 80.4663 269.033 81.9939 269.033 83.8159Z" fill="white"/>
<path d="M297.671 80.6135H297.726L306.138 89.908H306.467V77.6503H305.022V86.7607H304.949L296.555 77.5031H296.226V89.8159H297.671V80.6135Z" fill="white"/>
</svg>
