<svg width="156" height="30" viewBox="0 0 156 30" fill="none" xmlns="http://www.w3.org/2000/svg">
<path d="M9.72787 11.1751H8.72685L2.69506 26.3848C1.77104 28.6572 1.12936 29.4577 0 29.7418V29.8451H4.59443V29.7418C2.84906 29.4319 2.36138 28.5023 3.25973 26.1524L4.33776 23.3893H12.0122L13.0903 26.3332C13.8346 28.6314 13.5523 29.4061 12.2946 29.7418V29.8451H17.7874V29.7418C17.2997 29.6127 16.889 29.3028 16.5297 28.7863C16.196 28.2699 15.734 27.2111 15.1436 25.6359L9.72787 11.1751ZM8.31617 13.3443L11.8582 23.002H4.49176L8.31617 13.3443Z" fill="#CCA766"/>
<path d="M28.2658 20.7554C30.4475 19.9291 31.7309 18.2506 31.7309 16.2881C31.7309 14.8162 31.1919 13.5767 30.0882 12.6212C28.9845 11.6658 27.3418 11.1751 25.1344 11.1751H19.616V11.2784C20.463 11.5108 20.848 12.3372 20.848 14.9194V26.1007C20.848 28.683 20.463 29.5094 19.616 29.7418V29.8451H24.4671V29.7418C23.9537 29.6127 23.5944 29.277 23.3634 28.7347C23.1324 28.1924 23.0297 27.1853 23.0297 25.7392V21.3235H24.9291C25.4681 21.3235 25.9558 21.2977 26.3664 21.2202L31.1662 29.8451H34.0666V29.7159C33.6302 29.6127 33.2196 29.0187 32.1672 27.2886L28.2658 20.7554ZM23.0297 20.962V11.5108H24.6724C27.8295 11.5108 29.3952 13.1118 29.3952 16.3397C29.3952 19.1028 27.9065 20.962 24.9034 20.962H23.0297Z" fill="#CCA766"/>
<path d="M33.4249 11.1751L33.1939 16.2622L33.2966 16.3139C34.1179 12.802 35.4526 11.5108 38.199 11.5108H39.8417V26.1007C39.8417 28.7089 39.431 29.5094 38.4814 29.7418V29.8451H43.3838V29.7418C42.4341 29.5094 42.0234 28.7089 42.0234 26.1007V11.5108H43.6918C46.4382 11.5108 47.7729 12.802 48.5942 16.3139L48.6969 16.2622L48.4659 11.1751H33.4249Z" fill="#CCA766"/>
<path d="M67.0002 11.2784C68.7456 11.5883 69.1819 12.5179 68.3606 14.8678L63.4325 27.6759L58.5814 14.687C57.7857 12.3888 58.1194 11.6141 59.377 11.2784V11.1751H53.8586V11.2784C54.3463 11.4075 54.757 11.7432 55.0906 12.2597C55.4243 12.7503 55.912 13.8091 56.528 15.3843L62.0208 29.8451H63.0218L68.8996 14.6354C69.7466 12.3888 70.4396 11.5883 71.569 11.2784V11.1751H67.0002V11.2784Z" fill="#CCA766"/>
<path d="M76.3894 14.9194C76.3894 12.3113 76.7231 11.5108 77.6214 11.2784V11.1751H72.9757V11.2784C73.8227 11.5108 74.2077 12.3372 74.2077 14.9194V26.1007C74.2077 28.683 73.8227 29.5094 72.9757 29.7418V29.8451H77.6471V29.7418C76.7487 29.5094 76.3894 28.7089 76.3894 26.1007V14.9194Z" fill="#CCA766"/>
<path d="M92.8214 24.2673C91.692 27.9858 89.9467 29.5094 87.38 29.5094H83.7095V14.9194C83.7095 12.3113 84.0689 11.5108 84.9672 11.2784V11.1751H80.2958V11.2784C81.1428 11.5108 81.5278 12.3372 81.5278 14.9194V26.1007C81.5278 28.683 81.1428 29.5094 80.2958 29.7418V29.8451H92.2567L92.8984 24.319L92.8214 24.2673Z" fill="#CCA766"/>
<path d="M106.308 24.2673C105.178 27.9858 103.433 29.5094 100.866 29.5094H97.1959V14.9194C97.1959 12.3113 97.5552 11.5108 98.4536 11.2784V11.1751H93.7821V11.2784C94.6291 11.5108 95.0142 12.3372 95.0142 14.9194V26.1007C95.0142 28.683 94.6291 29.5094 93.7821 29.7418V29.8451H105.743L106.385 24.319L106.308 24.2673Z" fill="#CCA766"/>
<path d="M116.329 11.1751H115.328L109.296 26.3848C108.372 28.6572 107.73 29.4577 106.601 29.7418V29.8451H111.195V29.7418C109.45 29.4319 108.962 28.5023 109.861 26.1524L110.939 23.3893H118.613L119.691 26.3332C120.436 28.6314 120.153 29.4061 118.896 29.7418V29.8451H124.388V29.7418C123.901 29.6127 123.49 29.3028 123.131 28.7863C122.797 28.2699 122.335 27.2111 121.745 25.6359L116.329 11.1751ZM114.917 13.3443L118.459 23.002H111.093L114.917 13.3443Z" fill="#CCA766"/>
<path d="M136.227 21.1686C137.665 21.3752 138.229 22.2015 138.229 24.9645C138.229 28.399 136.843 29.6385 133.327 29.6385C131.196 29.6385 129.477 28.838 128.168 27.2111C126.859 25.5843 126.191 23.3377 126.191 20.4714C126.191 17.605 126.859 15.3843 128.193 13.7574C129.528 12.1306 131.273 11.3042 133.455 11.3042C135.226 11.3042 136.535 11.7174 137.408 12.5437C138.306 13.3701 138.999 14.7387 139.513 16.6496L139.59 16.6238L139.436 12.1306C138.409 11.4334 136.048 10.9169 133.455 10.9169C130.657 10.9169 128.347 11.7949 126.551 13.5767C124.754 15.3326 123.856 17.6308 123.856 20.4714C123.856 23.3119 124.728 25.6101 126.499 27.3661C128.27 29.122 130.529 30 133.327 30C135.894 30 137.793 29.5094 139.051 28.5281L140.385 29.8709L140.437 29.8192C140.308 29.1995 140.206 28.6056 140.154 28.0633C140.129 27.521 140.103 26.4881 140.103 24.9645C140.103 22.279 140.514 21.401 141.335 21.1686V21.0911H136.227V21.1686Z" fill="#CCA766"/>
<path d="M155.897 24.5772C155.358 26.4106 154.64 27.6759 153.716 28.4248C152.792 29.1478 151.534 29.5094 149.943 29.5094H146.452V20.2131H149.455C150.713 20.2131 151.611 20.4197 152.099 20.8587C152.586 21.2977 152.946 21.9691 153.151 22.8987H153.254V17.605H153.151C152.946 18.4314 152.586 19.0253 152.099 19.3868C151.611 19.7225 150.738 19.9033 149.455 19.9033H146.452V11.5108H149.866C151.38 11.5108 152.509 11.8724 153.254 12.5696C153.998 13.2668 154.563 14.5321 154.973 16.3139L155.076 16.2622L154.845 11.1751H143.038V11.2784C143.885 11.5108 144.27 12.3372 144.27 14.9194V26.1007C144.27 28.683 143.885 29.5094 143.038 29.7418V29.8451H155.435L156 24.6288L155.897 24.5772Z" fill="#CCA766"/>
<path d="M75.0813 0C77.2984 0.204436 76.8115 2.77439 76.8115 2.77439C76.8115 2.77439 76.4084 4.52664 75.0813 6.83376C73.7594 4.49743 73.385 2.77439 73.385 2.77439C73.385 2.77439 72.8641 0.175232 75.0813 0Z" fill="#CCA766"/>
<path d="M77.0131 6.3098C75.7174 7.44876 75.5446 9.02579 75.5446 9.02579C75.5446 9.02579 76.8694 8.23282 78.1648 8.20636C79.3546 8.18206 80.5034 8.76123 81.2746 8.11874C81.8004 7.68068 82.0049 7.0254 81.7065 6.25139C81.0196 4.46994 78.1987 5.26762 77.0131 6.3098Z" fill="#CCA766"/>
<path d="M73.1775 6.3098C74.4732 7.44876 74.646 9.02579 74.646 9.02579C74.646 9.02579 73.3212 8.23282 72.0258 8.20636C70.8359 8.18206 69.6872 8.76123 68.916 8.11874C68.3902 7.68068 68.1857 7.0254 68.4841 6.25139C69.171 4.46994 71.9919 5.26762 73.1775 6.3098Z" fill="#CCA766"/>
</svg>
