<svg width="40" height="26" viewBox="0 0 40 26" fill="none" xmlns="http://www.w3.org/2000/svg">
<path d="M19.6997 0C26.1846 0.588906 24.7606 7.99201 24.7606 7.99201C24.7606 7.99201 23.5815 13.0396 19.6997 19.6856C15.8333 12.9555 14.7384 7.99201 14.7384 7.99201C14.7384 7.99201 13.2147 0.504779 19.6997 0Z" fill="#CCA766"/>
<path d="M25.3501 18.1762C21.5602 21.4571 21.0549 26 21.0549 26C21.0549 26 24.9297 23.7157 28.7189 23.6395C32.199 23.5695 35.559 25.2379 37.8146 23.3871C39.3525 22.1252 39.9508 20.2376 39.0779 18.008C37.0687 12.8763 28.818 15.1741 25.3501 18.1762Z" fill="#CCA766"/>
<path d="M14.1314 18.1762C17.9213 21.4571 18.4266 26 18.4266 26C18.4266 26 14.5518 23.7157 10.7626 23.6395C7.28252 23.5695 3.9225 25.2379 1.66688 23.3871C0.128959 22.1252 -0.469348 20.2376 0.403592 18.008C2.41274 12.8763 10.6635 15.1741 14.1314 18.1762Z" fill="#CCA766"/>
</svg>
