<svg width="22" height="22" viewBox="0 0 22 22" fill="none" xmlns="http://www.w3.org/2000/svg">
<path d="M17.3962 13.6282C16.9452 13.1592 16.4011 12.9085 15.8245 12.9085C15.2526 12.9085 14.7039 13.1546 14.2342 13.6236L12.7648 15.0862C12.6439 15.0212 12.523 14.9608 12.4068 14.9005C12.2394 14.8169 12.0813 14.738 11.9464 14.6544C10.57 13.7814 9.31915 12.6438 8.11945 11.1719C7.5382 10.4383 7.1476 9.82075 6.86395 9.19391C7.24525 8.84567 7.59865 8.48349 7.94275 8.13525C8.07295 8.00524 8.20315 7.87058 8.33335 7.74057C9.30985 6.76549 9.30985 5.50252 8.33335 4.52744L7.0639 3.25983C6.91975 3.11589 6.77095 2.96731 6.63145 2.81872C6.35245 2.53084 6.0595 2.23367 5.75725 1.95508C5.30619 1.50933 4.76679 1.27252 4.19949 1.27252C3.63219 1.27252 3.08349 1.50933 2.61849 1.95508C2.61384 1.95972 2.61384 1.95972 2.60919 1.96437L1.02819 3.557C0.432985 4.15134 0.0935343 4.87569 0.0191341 5.71611C-0.0924661 7.07194 0.307435 8.33491 0.614335 9.16141C1.36764 11.1905 2.49294 13.071 4.17159 15.0862C6.2083 17.5146 8.65885 19.4323 11.4582 20.7835C12.5277 21.2896 13.9552 21.8886 15.5502 21.9907C15.6478 21.9954 15.7501 22 15.8431 22C16.9173 22 17.8194 21.6146 18.5262 20.8485C18.5308 20.8392 18.5401 20.8345 18.5448 20.8253C18.7866 20.5327 19.0656 20.2681 19.3585 19.9848C19.5585 19.7945 19.7631 19.5948 19.963 19.3858C20.4234 18.9076 20.6652 18.3504 20.6652 17.7793C20.6652 17.2035 20.4187 16.651 19.9491 16.1866L17.3962 13.6282ZM19.0609 18.5176C19.0563 18.5222 19.0563 18.5176 19.0609 18.5176C18.8796 18.7126 18.6936 18.889 18.4936 19.084C18.1914 19.3719 17.8845 19.6737 17.5962 20.0127C17.1265 20.5142 16.5732 20.751 15.8478 20.751C15.778 20.751 15.7036 20.751 15.6339 20.7463C14.2528 20.6581 12.9694 20.1195 12.0069 19.6598C9.37495 18.3876 7.0639 16.5813 5.14344 14.2922C3.55779 12.3838 2.49759 10.6194 1.79544 8.72494C1.36299 7.56877 1.20489 6.66798 1.27464 5.81827C1.32114 5.275 1.53039 4.82461 1.91634 4.43922L3.50199 2.85587C3.72984 2.64228 3.97164 2.5262 4.20879 2.5262C4.50174 2.5262 4.73889 2.70264 4.88769 2.85123C4.89234 2.85587 4.89699 2.86051 4.90164 2.86516C5.18529 3.12982 5.455 3.40377 5.73865 3.6963C5.8828 3.84488 6.0316 3.99347 6.1804 4.14669L7.44985 5.4143C7.94275 5.90649 7.94275 6.36153 7.44985 6.85371C7.315 6.98837 7.1848 7.12302 7.04995 7.25303C6.65935 7.65235 6.28735 8.02381 5.8828 8.38598C5.8735 8.39527 5.8642 8.39991 5.85955 8.4092C5.45965 8.80852 5.53405 9.19855 5.61775 9.46322C5.6224 9.47715 5.62705 9.49108 5.6317 9.50501C5.96185 10.3036 6.42685 11.0559 7.13365 11.952L7.1383 11.9566C8.4217 13.5354 9.77485 14.7658 11.2675 15.7084C11.4582 15.8291 11.6535 15.9266 11.8395 16.0195C12.0069 16.1031 12.165 16.182 12.2998 16.2656C12.3184 16.2749 12.337 16.2888 12.3556 16.2981C12.5137 16.377 12.6625 16.4142 12.816 16.4142C13.2019 16.4142 13.4437 16.1727 13.5228 16.0938L15.1131 14.5058C15.2712 14.3479 15.5223 14.1575 15.8152 14.1575C16.1035 14.1575 16.3407 14.3386 16.4848 14.4965C16.4895 14.5011 16.4895 14.5011 16.4941 14.5058L19.0563 17.0642C19.5352 17.5378 19.5352 18.0254 19.0609 18.5176Z" fill="#CCA766"/>
<path d="M11.8906 5.23322C13.1089 5.43752 14.2156 6.01328 15.0991 6.8955C15.9826 7.77772 16.5546 8.88281 16.7638 10.0993C16.815 10.4058 17.08 10.6194 17.3823 10.6194C17.4195 10.6194 17.452 10.6147 17.4892 10.6101C17.8333 10.5544 18.0612 10.2294 18.0054 9.88575C17.7543 8.41384 17.0568 7.07194 15.9919 6.00864C14.9271 4.94533 13.5832 4.24885 12.1092 3.99811C11.7651 3.94239 11.4442 4.16991 11.3838 4.50887C11.3233 4.84783 11.5465 5.1775 11.8906 5.23322Z" fill="#CCA766"/>
<path d="M21.9904 9.70467C21.5766 7.28089 20.4327 5.07534 18.675 3.3202C16.9173 1.56505 14.7085 0.422806 12.2812 0.0095565C11.9418 -0.0508058 11.6209 0.181357 11.5605 0.520314C11.5047 0.863915 11.7325 1.1843 12.0766 1.24466C14.2435 1.61148 16.2198 2.63764 17.7915 4.20241C19.3632 5.77183 20.3862 7.74522 20.7535 9.90897C20.8047 10.2154 21.0697 10.429 21.372 10.429C21.4092 10.429 21.4417 10.4244 21.4789 10.4197C21.8184 10.3687 22.0509 10.0436 21.9904 9.70467Z" fill="#CCA766"/>
</svg>
