<svg width="24" height="19" viewBox="0 0 24 19" fill="none" xmlns="http://www.w3.org/2000/svg">
<path d="M21.5538 0.216797H2.07692C0.933138 0.216797 0 1.14892 0 2.29372V16.1399C0 17.2808 0.928985 18.2168 2.07692 18.2168H21.5538C22.6948 18.2168 23.6308 17.2878 23.6308 16.1399V2.29372C23.6308 1.1528 22.7018 0.216797 21.5538 0.216797ZM21.267 1.60141L11.8594 11.0091L2.37042 1.60141H21.267ZM1.38462 15.8532V2.57383L8.05288 9.18491L1.38462 15.8532ZM2.36368 16.8322L9.03614 10.1597L11.3742 12.4777C11.6448 12.746 12.0816 12.7451 12.3511 12.4755L14.6308 10.1959L21.2671 16.8322H2.36368ZM22.2462 15.8531L15.6098 9.2168L22.2462 2.58043V15.8531Z" fill="white"/>
</svg>
