<svg width="21" height="25" viewBox="0 0 21 25" fill="none" xmlns="http://www.w3.org/2000/svg">
<path d="M11.33 0C4.58333 0 0.995361 4.39082 0.995361 9.17854C0.995361 11.399 2.21699 14.1678 4.17253 15.046C4.46948 15.1819 4.63103 15.1241 4.69719 14.8444C4.75565 14.6319 5.01259 13.6084 5.13722 13.1256C5.17568 12.9709 5.15568 12.8365 5.0326 12.6912C4.38331 11.9287 3.86789 10.5395 3.86789 9.23636C3.86789 5.89714 6.48194 2.65481 10.93 2.65481C14.7764 2.65481 17.4674 5.19242 17.4674 8.82228C17.4674 12.924 15.3303 15.7617 12.5532 15.7617C11.0161 15.7617 9.87143 14.5366 10.2345 13.0209C10.673 11.2161 11.5331 9.27542 11.5331 7.9738C11.5331 6.80656 10.8838 5.84089 9.55756 5.84089C7.99282 5.84089 6.7235 7.4144 6.7235 9.52699C6.7235 10.8692 7.19122 11.7755 7.19122 11.7755C7.19122 11.7755 5.64341 18.1258 5.3557 19.3118C4.86951 21.3197 5.42186 24.5714 5.46955 24.8511C5.49879 25.0058 5.66957 25.0543 5.76496 24.9277C5.91728 24.7246 7.78819 22.0135 8.31285 20.054C8.50363 19.3399 9.28677 16.4445 9.28677 16.4445C9.80219 17.3899 11.29 18.1821 12.8747 18.1821C17.5889 18.1821 20.9954 13.9741 20.9954 8.75196C20.9784 3.74548 16.7597 0 11.33 0Z" fill="white"/>
</svg>
