<svg width="24" height="16" viewBox="0 0 24 16" fill="none" xmlns="http://www.w3.org/2000/svg">
<path d="M23.5055 13.4964C23.229 14.4754 22.4183 15.2471 21.3903 15.5107C19.5122 16 11.9997 16 11.9997 16C11.9997 16 4.48756 16 2.60948 15.5293C1.60122 15.2659 0.770802 14.4752 0.494239 13.4964C0 11.7083 0 8 0 8C0 8 0 4.27303 0.494239 2.50362C0.771095 1.52477 1.58145 0.753038 2.60962 0.489426C4.50733 4.25999e-07 12 8.00938e-07 12 8.00938e-07C12 8.00938e-07 19.5122 7.32767e-07 21.3903 0.470737C22.4184 0.734209 23.229 1.50594 23.5058 2.48479C23.9999 4.27303 23.9999 7.98117 23.9999 7.98117C23.9999 7.98117 24.0197 11.7083 23.5055 13.4964ZM9.60793 4.57416V11.4258L15.8549 8L9.60793 4.57416Z" fill="white"/>
</svg>
