<svg width="32" height="32" viewBox="0 0 32 32" fill="none" xmlns="http://www.w3.org/2000/svg">
<path d="M31.8047 30.862L22.0681 21.1253C24.0904 18.8799 25.3334 15.9193 25.3334 12.6666C25.3333 5.68231 19.6511 0 12.6667 0C5.68231 0 0 5.68231 0 12.6667C0 19.6511 5.68231 25.3334 12.6667 25.3334C15.9194 25.3334 18.8799 24.0904 21.1254 22.0681L30.862 31.8047C30.9922 31.9349 31.1628 32 31.3334 32C31.5039 32 31.6745 31.9349 31.8047 31.8047C32.0651 31.5443 32.0651 31.1224 31.8047 30.862ZM12.6667 24C6.418 24 1.33337 18.916 1.33337 12.6667C1.33337 6.41738 6.418 1.33331 12.6667 1.33331C18.9154 1.33331 24 6.41731 24 12.6667C24 18.9161 18.9154 24 12.6667 24Z" fill="#CCA766"/>
</svg>
