<svg width="18" height="20" viewBox="0 0 18 20" fill="none" xmlns="http://www.w3.org/2000/svg">
<path d="M8.33376 2.96432V0.37227C8.33237 0.222344 8.42154 0.0863467 8.55962 0.027895C8.7 -0.0299059 8.86147 0.00385467 8.96696 0.113077L13.0402 4.18634C13.1838 4.33076 13.1838 4.56404 13.0402 4.70846L8.96696 8.78172C8.89692 8.85237 8.80137 8.89182 8.70191 8.89125C8.49739 8.89008 8.33258 8.72332 8.33376 8.5188V5.92675C5.4211 6.12137 3.15615 8.53733 3.14964 11.4564C3.14283 14.5241 5.6241 17.0164 8.69171 17.0232C11.7593 17.03 14.2517 14.5487 14.2585 11.4811C14.2585 11.2766 14.4242 11.1109 14.6288 11.1109H16.8505C17.0551 11.1109 17.2208 11.2766 17.2208 11.4811C17.2208 16.1848 13.4077 19.9979 8.70399 19.9979C4.00029 20.1002 0.104287 16.37 0.00205061 11.6663C-0.100142 6.96256 3.63006 3.0666 8.33376 2.96432Z" fill="#CCA766"/>
</svg>
