<svg width="289" height="55" viewBox="0 0 289 55" fill="none" xmlns="http://www.w3.org/2000/svg">
<path d="M18.0162 20.4877H16.1623L4.99131 48.3721C3.28 52.5382 2.0916 54.0058 0 54.5266V54.716H8.50899V54.5266C5.27652 53.9585 4.37333 52.2542 6.0371 47.9461L8.03363 42.8805H22.247L24.2435 48.2775C25.622 52.4909 25.0991 53.9111 22.7699 54.5266V54.716H32.9426V54.5266C32.0394 54.2899 31.2789 53.7218 30.6133 52.7749C29.9954 51.8281 29.1397 49.8871 28.0464 46.9992L18.0162 20.4877ZM15.4017 24.4645L21.9617 42.1703H8.31884L15.4017 24.4645Z" fill="#CCA766"/>
<path d="M52.3489 38.0516C56.3895 36.5367 58.7663 33.4594 58.7663 29.8614C58.7663 27.163 57.7681 24.8905 55.724 23.1389C53.6799 21.3872 50.6376 20.4877 46.5495 20.4877H36.3292V20.6771C37.8979 21.1032 38.6109 22.6181 38.6109 27.3523V47.8514C38.6109 52.5856 37.8979 54.1005 36.3292 54.5266V54.716H45.3136V54.5266C44.3628 54.2899 43.6973 53.6744 43.2695 52.6802C42.8417 51.6861 42.6515 49.8397 42.6515 47.1886V39.0931H46.1692C47.1675 39.0931 48.0707 39.0458 48.8312 38.9038L57.7205 54.716H63.0921V54.4792C62.284 54.2899 61.5234 53.201 59.5744 50.0291L52.3489 38.0516ZM42.6515 38.4303V21.1032H45.6938C51.5408 21.1032 54.4405 24.0384 54.4405 29.9561C54.4405 35.0217 51.6834 38.4303 46.1217 38.4303H42.6515Z" fill="#CCA766"/>
<path d="M61.9037 20.4877L61.4759 29.8141L61.666 29.9088C63.1872 23.4703 65.6591 21.1032 70.7455 21.1032H73.7878V47.8514C73.7878 52.6329 73.0272 54.1005 71.2684 54.5266V54.716H80.3478V54.5266C78.5889 54.1005 77.8283 52.6329 77.8283 47.8514V21.1032H80.9182C86.0046 21.1032 88.4765 23.4703 89.9976 29.9088L90.1878 29.8141L89.7599 20.4877H61.9037Z" fill="#CCA766"/>
<path d="M124.086 20.6771C127.318 21.2452 128.127 22.9495 126.605 27.2576L117.478 50.7392L108.494 26.9263C107.02 22.7128 107.638 21.2926 109.968 20.6771V20.4877H99.7474V20.6771C100.651 20.9138 101.411 21.5293 102.029 22.4761C102.647 23.3756 103.55 25.3166 104.691 28.2045L114.864 54.716H116.718L127.604 26.8316C129.172 22.7128 130.456 21.2452 132.547 20.6771V20.4877H124.086V20.6771Z" fill="#CCA766"/>
<path d="M141.475 27.3523C141.475 22.5708 142.093 21.1032 143.757 20.6771V20.4877H135.153V20.6771C136.721 21.1032 137.434 22.6181 137.434 27.3523V47.8514C137.434 52.5856 136.721 54.1005 135.153 54.5266V54.716H143.804V54.5266C142.14 54.1005 141.475 52.6329 141.475 47.8514V27.3523Z" fill="#CCA766"/>
<path d="M171.907 44.4901C169.816 51.3073 166.583 54.1005 161.83 54.1005H155.032V27.3523C155.032 22.5708 155.698 21.1032 157.361 20.6771V20.4877H148.71V20.6771C150.278 21.1032 150.991 22.6181 150.991 27.3523V47.8514C150.991 52.5856 150.278 54.1005 148.71 54.5266V54.716H170.862L172.05 44.5848L171.907 44.4901Z" fill="#CCA766"/>
<path d="M196.884 44.4901C194.793 51.3073 191.56 54.1005 186.807 54.1005H180.009V27.3523C180.009 22.5708 180.675 21.1032 182.338 20.6771V20.4877H173.687V20.6771C175.255 21.1032 175.968 22.6181 175.968 27.3523V47.8514C175.968 52.5856 175.255 54.1005 173.687 54.5266V54.716H195.839L197.027 44.5848L196.884 44.4901Z" fill="#CCA766"/>
<path d="M215.444 20.4877H213.59L202.419 48.3721C200.708 52.5382 199.519 54.0058 197.428 54.5266V54.716H205.937V54.5266C202.704 53.9585 201.801 52.2542 203.465 47.9461L205.461 42.8805H219.675L221.671 48.2775C223.05 52.4909 222.527 53.9111 220.198 54.5266V54.716H230.37V54.5266C229.467 54.2899 228.707 53.7218 228.041 52.7749C227.423 51.8281 226.567 49.8871 225.474 46.9992L215.444 20.4877ZM212.829 24.4645L219.389 42.1703H205.747L212.829 24.4645Z" fill="#CCA766"/>
<path d="M252.296 38.8091C254.958 39.1878 256.004 40.7027 256.004 45.7683C256.004 52.0648 253.437 54.3372 246.924 54.3372C242.979 54.3372 239.794 52.8696 237.37 49.8871C234.945 46.9045 233.709 42.7858 233.709 37.5308C233.709 32.2759 234.945 28.2045 237.417 25.2219C239.889 22.2394 243.122 20.7245 247.162 20.7245C250.442 20.7245 252.866 21.4819 254.483 22.9969C256.146 24.5118 257.43 27.0209 258.381 30.5242L258.523 30.4769L258.238 22.2394C256.337 20.9612 251.963 20.0143 247.162 20.0143C241.981 20.0143 237.702 21.624 234.375 24.8905C231.047 28.1098 229.384 32.3232 229.384 37.5308C229.384 42.7384 231 46.9519 234.28 50.1711C237.56 53.3904 241.743 55 246.924 55C251.678 55 255.196 54.1005 257.525 52.3015L259.997 54.7633L260.092 54.6686C259.854 53.5324 259.664 52.4435 259.569 51.4494C259.522 50.4552 259.474 48.5615 259.474 45.7683C259.474 40.8448 260.235 39.2351 261.756 38.8091V38.667H252.296V38.8091Z" fill="#CCA766"/>
<path d="M288.726 45.0582C287.727 48.4195 286.396 50.7392 284.685 52.1121C282.974 53.4377 280.644 54.1005 277.697 54.1005H271.232V37.0574H276.794C279.123 37.0574 280.787 37.4362 281.69 38.241C282.593 39.0458 283.259 40.2767 283.639 41.981H283.829V32.2759H283.639C283.259 33.7908 282.593 34.8797 281.69 35.5425C280.787 36.1579 279.171 36.4893 276.794 36.4893H271.232V21.1032H277.555C280.359 21.1032 282.451 21.766 283.829 23.0442C285.208 24.3224 286.254 26.6422 287.014 29.9088L287.204 29.8141L286.777 20.4877H264.91V20.6771C266.479 21.1032 267.192 22.6181 267.192 27.3523V47.8514C267.192 52.5856 266.479 54.1005 264.91 54.5266V54.716H287.87L288.916 45.1529L288.726 45.0582Z" fill="#CCA766"/>
<path d="M139.052 0C143.158 0.374799 142.257 5.08638 142.257 5.08638C142.257 5.08638 141.51 8.29884 139.052 12.5286C136.604 8.2453 135.911 5.08638 135.911 5.08638C135.911 5.08638 134.946 0.321258 139.052 0Z" fill="#CCA766"/>
<path d="M142.63 11.568C140.23 13.6561 139.91 16.5473 139.91 16.5473C139.91 16.5473 142.364 15.0935 144.763 15.045C146.967 15.0004 149.094 16.0623 150.522 14.8844C151.496 14.0813 151.875 12.8799 151.322 11.4609C150.05 8.1949 144.826 9.6573 142.63 11.568Z" fill="#CCA766"/>
<path d="M135.526 11.568C137.926 13.6561 138.246 16.5473 138.246 16.5473C138.246 16.5473 135.793 15.0935 133.393 15.045C131.19 15.0004 129.062 16.0623 127.634 14.8844C126.66 14.0813 126.281 12.8799 126.834 11.4609C128.106 8.1949 133.331 9.6573 135.526 11.568Z" fill="#CCA766"/>
</svg>
