<svg width="31" height="32" viewBox="0 0 31 32" fill="none" xmlns="http://www.w3.org/2000/svg">
<path d="M26.4512 4.54222C23.5214 1.61239 19.6346 0 15.4922 0C11.3498 0 7.46303 1.61239 4.53319 4.54222C-1.12984 10.2053 -1.5231 19.27 3.55658 25.3853C3.05845 26.3882 2.25881 27.5548 1.07245 28.1382C0.502217 28.42 0.18105 29.0296 0.279367 29.6588C0.377683 30.288 0.862711 30.7796 1.49194 30.8779C1.78689 30.9238 2.20637 30.9697 2.71762 30.9697C4.08749 30.9697 6.10626 30.6485 8.17091 29.1607C10.4715 30.3995 12.9884 31.0025 15.4857 31.0025C19.497 31.0025 23.469 29.4491 26.4578 26.4603C29.3876 23.5304 31 19.6436 31 15.5012C31 11.3588 29.3811 7.47206 26.4512 4.54222ZM25.1993 25.2084C20.7751 29.6326 13.9257 30.5109 8.53795 27.3451C8.18402 27.1354 7.74487 27.2009 7.46303 27.4827C7.43681 27.4959 7.41059 27.5155 7.39093 27.5352C5.61468 28.9116 3.8712 29.2 2.71762 29.2H2.71106C4.04161 28.2299 4.88058 26.788 5.37216 25.6672C5.45082 25.4771 5.46392 25.2805 5.41804 25.0969C5.39838 24.92 5.32628 24.743 5.20175 24.5988C0.403901 19.1783 0.65297 10.9197 5.77854 5.79412C11.1335 0.439147 19.8444 0.439147 25.1928 5.79412C30.5543 11.1491 30.5543 19.8534 25.1993 25.2084Z" fill="#CCA766"/>
<path d="M15.4922 16.5894C16.0931 16.5894 16.5802 16.1023 16.5802 15.5014C16.5802 14.9005 16.0931 14.4133 15.4922 14.4133C14.8913 14.4133 14.4042 14.9005 14.4042 15.5014C14.4042 16.1023 14.8913 16.5894 15.4922 16.5894Z" fill="#CCA766"/>
<path d="M21.1028 16.5894C21.7037 16.5894 22.1908 16.1023 22.1908 15.5014C22.1908 14.9005 21.7037 14.4133 21.1028 14.4133C20.5019 14.4133 20.0147 14.9005 20.0147 15.5014C20.0147 16.1023 20.5019 16.5894 21.1028 16.5894Z" fill="#CCA766"/>
<path d="M9.88161 16.5894C10.4825 16.5894 10.9696 16.1023 10.9696 15.5014C10.9696 14.9005 10.4825 14.4133 9.88161 14.4133C9.2807 14.4133 8.79357 14.9005 8.79357 15.5014C8.79357 16.1023 9.2807 16.5894 9.88161 16.5894Z" fill="#CCA766"/>
</svg>
