<svg width="19" height="21" viewBox="0 0 19 21" fill="none" xmlns="http://www.w3.org/2000/svg">
<path d="M4.19766 7.02448H8.62573C9.23693 7.02448 9.73245 6.50434 9.73245 5.87395C9.73245 5.24356 9.23693 4.72368 8.62573 4.72368H4.19766C3.5865 4.72368 3.09053 5.2436 3.09053 5.87395C3.09049 6.50429 3.58646 7.02448 4.19766 7.02448Z" fill="white"/>
<path d="M4.19766 12.0422H13.4958C14.1074 12.0422 14.603 11.522 14.603 10.8916C14.603 10.2612 14.1074 9.74133 13.4958 9.74133H4.19766C3.5865 9.74133 3.09053 10.2613 3.09053 10.8916C3.09049 11.522 3.58646 12.0422 4.19766 12.0422Z" fill="white"/>
<path d="M13.9387 14.3182H4.19766C3.5865 14.3182 3.09053 14.826 3.09053 15.4563C3.09053 16.0867 3.5865 16.5947 4.19766 16.5947H13.9388C14.5499 16.5947 15.046 16.0867 15.046 15.4563C15.0459 14.826 14.5499 14.3182 13.9387 14.3182Z" fill="white"/>
<path d="M13.7026 0H2.47537C1.10538 0 0 1.1449 0 2.55694V18.4349C0 19.8472 1.10538 21 2.47537 21H15.661C17.031 21 18.1364 19.8471 18.1364 18.4349V4.68369L13.7026 0ZM15.661 19.1644H2.47537C2.08236 19.1644 1.75637 18.8404 1.75637 18.4349V2.55694C1.75637 2.15156 2.08236 1.81089 2.47537 1.81089H12.8426V3.86626C12.8426 4.7699 13.5528 5.50512 14.429 5.51436L16.38 5.53491V18.4349C16.38 18.8404 16.054 19.1644 15.661 19.1644Z" fill="white"/>
</svg>
