<svg width="24" height="24" viewBox="0 0 24 24" fill="none" xmlns="http://www.w3.org/2000/svg">
<path d="M13.7864 12L23.6301 2.15635C24.1233 1.66303 24.1233 0.863251 23.6301 0.369985C23.1367 -0.123328 22.3369 -0.123328 21.8436 0.369985L12 10.2136L2.15634 0.369985C1.66303 -0.123328 0.863248 -0.123328 0.369983 0.369985C-0.123281 0.863298 -0.123328 1.66308 0.369983 2.15635L10.2136 12L0.369983 21.8437C-0.123328 22.337 -0.123328 23.1368 0.369983 23.63C0.863295 24.1233 1.66307 24.1233 2.15634 23.63L12 13.7864L21.8436 23.63C22.3369 24.1233 23.1367 24.1233 23.63 23.63C24.1232 23.1367 24.1232 22.3369 23.63 21.8437L13.7864 12Z" fill="#CCA766"/>
</svg>
