<svg width="16" height="17" viewBox="0 0 16 17" fill="none" xmlns="http://www.w3.org/2000/svg">
<path d="M9.19095 8.05079L15.7534 1.48834C16.0822 1.15947 16.0822 0.626282 15.7534 0.297438C15.4245 -0.0314376 14.8913 -0.0314376 14.5624 0.297438L7.99998 6.85988L1.43756 0.297438C1.10868 -0.0314376 0.575499 -0.0314376 0.246656 0.297438C-0.0821873 0.626313 -0.0822185 1.1595 0.246656 1.48834L6.80908 8.05079L0.246656 14.6132C-0.0822185 14.9421 -0.0822185 15.4753 0.246656 15.8041C0.57553 16.133 1.10872 16.133 1.43756 15.8041L7.99998 9.24169L14.5624 15.8041C14.8912 16.133 15.4245 16.133 15.7533 15.8041C16.0821 15.4753 16.0821 14.9421 15.7533 14.6132L9.19095 8.05079Z" fill="#CCA766"/>
</svg>
